name ./resultDataOpenSim/trcMotMarkerGrf/sub06/grf-01-03.mot
datacolumns 19
datarows 27
range 1.02400000 1.12800000
endheader

                time	     ground_force_vx	     ground_force_vy	     ground_force_vz	     ground_force_px	     ground_force_py	     ground_force_pz	   l_ground_force_vx	   l_ground_force_vy	   l_ground_force_vz	   l_ground_force_px	   l_ground_force_py	   l_ground_force_pz	     ground_torque_x	     ground_torque_y	     ground_torque_z	   l_ground_torque_x	   l_ground_torque_y	   l_ground_torque_z	
          1.02400000	          0.00000000	          0.00000000	          0.00000000	          0.00000000	          0.00000000	          0.00000000	         62.99646770	        754.84914530	         46.64113059	          0.04835550	          0.00000000	         -0.02895863	          0.00000000	          0.00000000	          0.00000000	          0.00000000	         -2.62797292	          0.00000000	
          1.02800000	          0.00000000	          0.00000000	          0.00000000	          0.00000000	          0.00000000	          0.00000000	         69.22921351	        772.45046519	         46.24223989	          0.04904799	          0.00000000	         -0.02865333	          0.00000000	          0.00000000	          0.00000000	          0.00000000	         -2.79813585	          0.00000000	
          1.03200000	          0.00000000	          0.00000000	          0.00000000	          0.00000000	          0.00000000	          0.00000000	         75.85525530	        788.51611217	         45.74734074	          0.04972236	          0.00000000	         -0.02832913	          0.00000000	          0.00000000	          0.00000000	          0.00000000	         -2.97410758	          0.00000000	
          1.03600000	          0.00000000	          0.00000000	          0.00000000	          0.00000000	          0.00000000	          0.00000000	         82.76069755	        803.04824060	         45.17531848	          0.05038627	          0.00000000	         -0.02800022	          0.00000000	          0.00000000	          0.00000000	          0.00000000	         -3.15068501	          0.00000000	
          1.04000000	          0.00000000	          0.00000000	          0.00000000	          0.00000000	          0.00000000	          0.00000000	         89.84188490	        816.07179478	         44.51708026	          0.05102791	          0.00000000	         -0.02768625	          0.00000000	          0.00000000	          0.00000000	          0.00000000	         -3.32306887	          0.00000000	
          1.04400000	          0.00000000	          0.00000000	          0.00000000	          0.00000000	          0.00000000	          0.00000000	         97.01166566	        827.56316746	         43.75435115	          0.05164204	          0.00000000	         -0.02739785	          0.00000000	          0.00000000	          0.00000000	          0.00000000	         -3.48691768	          0.00000000	
          1.04800000	          0.00000000	          0.00000000	          0.00000000	          0.00000000	          0.00000000	          0.00000000	        104.21376178	        837.38693121	         42.88253016	          0.05224916	          0.00000000	         -0.02712797	          0.00000000	          0.00000000	          0.00000000	          0.00000000	         -3.63839461	          0.00000000	
          1.05200000	          0.00000000	          0.00000000	          0.00000000	          0.00000000	          0.00000000	          0.00000000	        111.42129355	        845.32362501	         41.92456223	          0.05287060	          0.00000000	         -0.02686828	          0.00000000	          0.00000000	          0.00000000	          0.00000000	         -3.77420213	          0.00000000	
          1.05600000	          0.00000000	          0.00000000	          0.00000000	          0.00000000	          0.00000000	          0.00000000	        118.60564796	        851.17853057	         40.92271774	          0.05351792	          0.00000000	         -0.02661550	          0.00000000	          0.00000000	          0.00000000	          0.00000000	         -3.89157463	          0.00000000	
          1.06000000	          0.00000000	          0.00000000	          0.00000000	          0.00000000	          0.00000000	          0.00000000	        125.70765009	        854.85076816	         39.91244490	          0.05420301	          0.00000000	         -0.02636442	          0.00000000	          0.00000000	          0.00000000	          0.00000000	         -3.98825409	          0.00000000	
          1.06400000	          0.00000000	          0.00000000	          0.00000000	          0.00000000	          0.00000000	          0.00000000	        132.64587582	        856.30715719	         38.90223676	          0.05493457	          0.00000000	         -0.02610767	          0.00000000	          0.00000000	          0.00000000	          0.00000000	         -4.06252635	          0.00000000	
          1.06800000	          0.00000000	          0.00000000	          0.00000000	          0.00000000	          0.00000000	          0.00000000	        139.34914881	        855.52440696	         37.88351036	          0.05571514	          0.00000000	         -0.02583859	          0.00000000	          0.00000000	          0.00000000	          0.00000000	         -4.11338115	          0.00000000	
          1.07200000	          0.00000000	          0.00000000	          0.00000000	          0.00000000	          0.00000000	          0.00000000	        145.77228753	        852.46579082	         36.85785049	          0.05654608	          0.00000000	         -0.02555349	          0.00000000	          0.00000000	          0.00000000	          0.00000000	         -4.14077296	          0.00000000	
          1.07600000	          0.00000000	          0.00000000	          0.00000000	          0.00000000	          0.00000000	          0.00000000	        151.88450748	        847.10442837	         35.83882827	          0.05742922	          0.00000000	         -0.02525124	          0.00000000	          0.00000000	          0.00000000	          0.00000000	         -4.14582687	          0.00000000	
          1.08000000	          0.00000000	          0.00000000	          0.00000000	          0.00000000	          0.00000000	          0.00000000	        157.65219936	        839.45800458	         34.83023553	          0.05836697	          0.00000000	         -0.02493236	          0.00000000	          0.00000000	          0.00000000	          0.00000000	         -4.13075312	          0.00000000	
          1.08400000	          0.00000000	          0.00000000	          0.00000000	          0.00000000	          0.00000000	          0.00000000	        163.02506498	        829.59293677	         33.82403966	          0.05934963	          0.00000000	         -0.02460174	          0.00000000	          0.00000000	          0.00000000	          0.00000000	         -4.09832195	          0.00000000	
          1.08800000	          0.00000000	          0.00000000	          0.00000000	          0.00000000	          0.00000000	          0.00000000	        167.93100253	        817.60218258	         32.81772275	          0.06035165	          0.00000000	         -0.02427162	          0.00000000	          0.00000000	          0.00000000	          0.00000000	         -4.05098053	          0.00000000	
          1.09200000	          0.00000000	          0.00000000	          0.00000000	          0.00000000	          0.00000000	          0.00000000	        172.29881094	        803.58359891	         31.82993703	          0.06137848	          0.00000000	         -0.02394725	          0.00000000	          0.00000000	          0.00000000	          0.00000000	         -3.98993083	          0.00000000	
          1.09600000	          0.00000000	          0.00000000	          0.00000000	          0.00000000	          0.00000000	          0.00000000	        176.09745705	        787.62642334	         30.91143743	          0.06247664	          0.00000000	         -0.02361506	          0.00000000	          0.00000000	          0.00000000	          0.00000000	         -3.91462962	          0.00000000	
          1.10000000	          0.00000000	          0.00000000	          0.00000000	          0.00000000	          0.00000000	          0.00000000	        179.34650974	        769.81164098	         30.12676279	          0.06367170	          0.00000000	         -0.02326404	          0.00000000	          0.00000000	          0.00000000	          0.00000000	         -3.82311819	          0.00000000	
          1.10400000	          0.00000000	          0.00000000	          0.00000000	          0.00000000	          0.00000000	          0.00000000	        182.07957176	        750.20965469	         29.50313375	          0.06493793	          0.00000000	         -0.02290045	          0.00000000	          0.00000000	          0.00000000	          0.00000000	         -3.71320474	          0.00000000	
          1.10800000	          0.00000000	          0.00000000	          0.00000000	          0.00000000	          0.00000000	          0.00000000	        184.29512190	        728.85747223	         28.99754785	          0.06621807	          0.00000000	         -0.02255001	          0.00000000	          0.00000000	          0.00000000	          0.00000000	         -3.58391972	          0.00000000	
          1.11200000	          0.00000000	          0.00000000	          0.00000000	          0.00000000	          0.00000000	          0.00000000	        185.93769698	        705.74867182	         28.50623901	          0.06747840	          0.00000000	         -0.02223162	          0.00000000	          0.00000000	          0.00000000	          0.00000000	         -3.43639048	          0.00000000	
          1.11600000	          0.00000000	          0.00000000	          0.00000000	          0.00000000	          0.00000000	          0.00000000	        186.91184939	        680.83303702	         27.89981180	          0.06869901	          0.00000000	         -0.02195486	          0.00000000	          0.00000000	          0.00000000	          0.00000000	         -3.27368949	          0.00000000	
          1.12000000	          0.00000000	          0.00000000	          0.00000000	          0.00000000	          0.00000000	          0.00000000	        187.10073525	        654.00954624	         27.06418249	          0.06986670	          0.00000000	         -0.02172488	          0.00000000	          0.00000000	          0.00000000	          0.00000000	         -3.09989133	          0.00000000	
          1.12400000	         -0.80747168	         26.08760187	          2.33130606	          0.64514515	          0.00000000	          0.09573975	        186.36900629	        625.14880896	         25.92008942	          0.07099080	          0.00000000	         -0.02152696	          0.00000000	          0.44765252	          0.00000000	          0.00000000	         -2.91891514	          0.00000000	
          1.12800000	         -8.36103468	        133.79906651	          6.40708815	          0.65020644	          0.00000000	          0.09387199	        184.54927145	        594.12707843	         24.41057962	          0.07211316	          0.00000000	         -0.02133049	          0.00000000	          0.33357565	          0.00000000	          0.00000000	         -2.73363314	          0.00000000	
